<svg width="1797" height="1000" viewBox="0 0 1797 1000" fill="none" xmlns="http://www.w3.org/2000/svg">
<path d="M1790.98 24.0115C1784.74 20.9412 1782.98 20.5557 1781.34 18.8072C1779.69 17.0586 1775.53 13.2449 1773.45 13.9883C1771.37 14.7318 1767.47 16.0123 1763.88 16.1499C1762.67 16.205 1761.62 16.0811 1760.69 16.0123C1762.55 14.4702 1764.43 12.9144 1765.57 11.9231C1767.25 10.4637 1768.26 3.63477 1769.86 0.550722C1769.95 0.371738 1770.05 0.178985 1770.16 0H0V998.184H344.201V989.524C345.922 989.786 348.236 995.307 349.254 996.064C353.605 999.286 358.658 1000.61 358.575 999.74C358.493 998.9 360.296 990.171 352.338 983.342C358.355 983.053 359.801 986.247 373.541 991.149C373.28 986.468 376.983 975.687 361.026 966.614C361.494 966.476 367.208 964.012 367.525 963.984C368.901 963.86 371.063 963.544 372.467 963.145C371.366 965.361 371.875 966.903 371.325 969.079C370.746 971.392 369.865 973.071 371.958 976.086C374.037 979.088 375.441 980.176 375.868 982.475C376.295 984.774 377.892 985.146 379.021 986.633C380.15 988.12 384.308 989.538 385.85 992.305C387.392 995.073 389.402 1001.31 388.975 996.298C388.548 991.286 391.467 987.872 392.789 984.058C394.111 980.258 394.772 974.71 394.317 972.245C393.863 969.794 392.995 965.21 390.49 962.621C387.97 960.047 385.726 957.073 382.022 957.252C381.94 957.252 381.857 957.252 381.788 957.252C383.468 955.503 383.936 953.163 384.859 950.987C384.886 950.932 384.9 950.877 384.927 950.822C388.135 956.935 392.183 962.497 396.919 967.179C395.983 970.084 396.148 974.352 398.296 978.083C401.298 983.287 406.199 986.784 411.266 988.547C416.346 990.309 421.826 994.205 422.748 995.555C423.684 996.904 423.74 992.663 422.335 984.278C421.729 980.671 420.518 976.981 418.934 973.787C419.65 974.283 420.284 974.737 420.793 975.081C421.234 975.384 421.647 975.687 422.046 975.99C422.597 978.248 426.837 979.763 429.164 982.241C431.587 984.829 428.173 981.965 431.216 978.964C434.162 976.045 434.905 969.547 436.626 963.75C438.416 966.779 439.917 970.359 440.082 973.154C440.261 976.183 443.497 978.84 447.751 981.346C452.005 983.865 457.843 986.495 459.729 988.244C461.615 989.992 466.944 994.398 466.944 994.398C466.944 994.398 465.539 988.67 466.31 983.686C467.068 978.702 466.834 973.663 463.102 969.574C459.771 965.926 458.339 964.976 455.874 963.365C455.957 961.699 456.039 960.033 456.122 958.629C456.879 959.179 457.526 959.634 457.953 959.95C460.445 961.74 465.278 961.685 467.866 962.071C468.21 962.126 468.568 962.167 468.926 962.208C470.675 963.503 472.63 964.728 474.626 965.637C479.28 967.771 484.333 969.409 484.47 971.24C484.553 972.218 484.856 968.831 485.062 964.728C485.255 964.728 485.379 964.728 485.379 964.728C485.379 964.728 485.269 964.535 485.09 964.218C485.255 960.776 485.338 956.949 485.173 954.829C484.787 950.024 482.364 944.943 479.197 941.749C477.242 939.78 476.278 938.445 475.59 937.398C476.595 936.476 477.614 935.526 478.55 934.658C479.734 935.126 480.932 935.54 481.249 935.512C481.855 935.457 484.581 933.75 487.045 935.76C487.362 936.021 487.733 936.256 488.133 936.462C489.372 939.45 491.286 942.272 492.8 944.034C494.824 946.389 498.032 949.597 498.321 953.314C498.183 953.576 498.046 953.81 497.908 954.03C497.013 955.352 494.521 957.252 494.686 958.876C494.852 960.501 493.007 964.81 492.043 967.578C491.561 968.982 490.859 970.4 490.363 971.295C491.795 970.249 495.444 969.395 497.206 969.739C499.312 970.152 503.608 967.867 505.246 967.716C506.871 967.55 509.707 967.068 510.699 966.559C511.676 966.05 511.538 964.618 515.517 963.2C518.904 961.988 519.634 959.565 520.488 957.142C520.694 957.073 520.887 957.031 521.107 956.949C527.922 954.553 529.974 953.397 532.328 953.245C532.232 959.565 536.899 964.797 539.543 966.793C542.434 968.982 551.025 974.71 554.33 976.858C557.634 979.005 559.699 981.263 559.506 979.226C559.3 977.188 558.983 975.99 559.864 974.462C560.745 972.934 560.415 971.736 560.346 968.858C560.319 967.647 560.443 965.788 560.553 963.695C561.572 962.566 562.99 961.382 564.477 960.184C565.041 961.176 565.647 961.905 566.294 962.305C568.924 963.902 570.066 962.966 570.961 963.695C571.856 964.425 572.145 965.223 573.646 965.898C575.147 966.573 579.291 968.845 581.466 970.07C583.642 971.295 585.211 972.576 585.721 973.567C586.23 974.544 586.423 964.026 586.643 959.895C586.836 956.164 586.203 946.017 582.733 940.606C583.862 938.334 583.628 935.994 584.33 934.328C586.726 935.994 589.383 937.88 590.76 939.367C588.887 941.281 586.712 949.831 589.534 953.645C592.384 957.486 591.806 957.954 593.486 960.253C595.152 962.552 599.392 965.843 603.688 967.688C607.984 969.533 612.651 970.923 612.816 972.548C612.982 974.173 613.642 962.181 613.216 957.899C612.789 953.617 610.503 949.115 607.543 946.32C605.726 944.599 604.817 943.415 604.17 942.492C605.161 941.57 606.18 940.62 607.103 939.78C610.118 937.013 608.755 937.77 612.486 935.953C613.298 935.553 613.89 935.154 614.344 934.727C614.289 935.402 614.289 936.242 614.524 937.811C615.116 941.666 617.993 945.907 620.072 948.179C622.151 950.437 625.552 953.603 625.304 957.334C625.056 961.066 628.168 952.942 630.164 950.271C632.16 947.6 635.809 936.545 634.35 932.166C633.221 928.766 630.04 924.594 628.36 921.771C629.063 921.317 629.682 920.959 630.15 920.849C630.908 920.67 629.2 919.816 627.052 918.866C626.158 916.953 624.175 915.7 622.702 915.452C622.302 911.638 621.807 904.548 622.702 901.959C622.867 901.464 623.005 900.913 623.115 900.321C623.376 900.555 623.61 900.775 623.803 900.995C624.987 902.345 626.336 905.567 628.154 905.856C628.333 905.883 628.553 905.966 628.773 906.048C629.186 908.21 630.329 910.427 632.147 912.01C634.432 914.006 635.947 915.741 637.31 917.049C636.938 917.889 636.208 919.335 635.258 920.353C633.854 921.868 631.279 924.387 633.675 924.043C634.487 923.933 635.74 923.782 637.103 923.589C636.69 925.324 636.236 926.934 636.222 927.94C636.194 930.239 634.9 933.846 635.974 933.529C636.36 933.419 637.103 933.116 637.929 932.731C637.158 936.448 635.024 941.363 635.575 944.571C636.194 948.082 632.284 953.397 631.706 955.889C631.128 958.381 628.829 962.016 630.109 961.947C631.389 961.878 636.208 960.818 636.8 960.322C637.392 959.826 638.976 956.137 642.955 956.467C646.934 956.797 652.097 953.782 654.52 951.07C656.929 948.358 660.867 947.05 662.987 945.59C664.736 944.392 667.324 941.997 670.174 938.032C671.551 939.463 673.396 943.759 674.786 946.499C672.996 947.903 671.317 949.376 670.573 950.602C668.88 953.369 666.581 957.004 666.333 959.895C666.085 962.787 667.131 965.609 667.131 967.605C667.131 969.602 665.92 973.333 667.241 974.889C668.563 976.458 669.72 982.199 670.697 985.738C671.193 987.528 671.482 989.483 671.606 990.763C672.349 988.67 675.502 985.201 677.554 984.306C680.018 983.232 682.827 977.835 684.396 976.513C685.966 975.192 688.541 972.672 689.188 971.46C689.835 970.235 688.678 968.872 691.776 964.576C694.874 960.281 692.974 956.852 692.189 953.149C691.404 949.445 688.43 941.556 685.567 940.95L684.713 939.133C687.425 934.176 692.024 925.764 692.685 924.677C693.566 923.245 693.938 921.758 694.02 920.753C694.075 920.023 693.428 918.88 693.359 917.352C694.943 918.412 696.636 919.569 697.972 920.505C697.985 920.574 697.999 920.643 698.013 920.711H697.985C697.985 920.711 698.399 924.374 697.462 926.852C696.526 929.316 697.008 932.276 700.877 940.427C704.746 948.578 714.549 951.042 719.078 951.235C723.608 951.442 736.55 951.249 741.479 951.111C746.408 950.974 750.153 951.841 748.501 949.886C746.848 947.931 745.651 946.912 745.472 944.723C745.293 942.52 744.108 941.515 741.974 938.61C739.854 935.705 736.095 928.477 732.116 923.768C731.814 923.41 731.469 923.052 731.125 922.708C735.145 924.787 738.643 926.577 738.643 928.215C738.643 928.835 738.849 927.94 739.138 926.232C740.804 927.182 742.277 927.692 743.448 927.623C747.289 927.403 747.798 925.627 749.244 925.75C750.69 925.874 751.543 926.494 753.581 926.122C755.619 925.75 761.498 925.145 764.609 924.869C767.349 924.621 769.621 924.759 770.97 925.227C770.97 926.356 770.681 926.976 770.874 927.651C771.245 928.917 773.159 931.767 774.371 933.309C775.582 934.851 777.166 940.441 779.258 941.928C781.007 943.167 783.279 947.022 783.568 949.115C783.926 947.945 784.587 946.169 785.385 944.585C786.982 941.46 789.171 936.324 790.727 935.127C792.269 933.915 791.842 930.211 792.255 928.339C792.655 926.466 794.169 924.043 794.5 921.29C794.83 918.536 793.384 914.708 792.338 911.79C791.773 910.22 790.039 908.072 788.318 906.103C792.076 905.25 795.573 904.355 797.473 904.63C798.561 906.42 799.58 907.728 800.406 908.582C802.113 910.358 805.528 912.34 807.263 915.342C808.997 918.343 813.238 922.171 817.01 922.625C820.797 923.079 821.554 926.838 822.008 927.416C822.462 927.995 826.758 929.908 827.942 930.225C829.126 930.542 827.667 926.7 827.626 924.264C827.57 921.813 824.955 916.099 826.207 912.932C827.034 910.84 826.717 907.618 826.469 904.63C826.965 904.3 827.419 903.956 827.763 903.584C829.883 901.367 832.678 900.39 834.441 900.183C836.203 899.963 837.36 896.631 837.442 894.759C837.511 892.886 840.444 891.014 842.729 889.568C845.001 888.136 844.271 883.056 843.555 879.641C842.839 876.227 844.065 871.022 842.523 870.141L842.55 868.764C844.312 865.488 847.107 861.22 848.801 859.87C849.957 858.948 851.045 858.356 851.94 857.97C851.293 861.564 848.346 869.067 847.699 872.441C846.57 878.347 846.653 885.41 847.493 892.707C846.405 892.872 845.579 893.698 844.505 895.557C842.729 898.641 838.998 897.306 837.552 900.761C836.107 904.217 832.045 907.053 832.018 913.965C831.976 920.877 832.403 922.721 831.467 924.952C830.531 927.182 828.768 931.946 828.768 931.946C828.768 931.946 832.747 933.86 837.456 928.903C842.165 923.947 843.046 922.419 845.152 921.386C847.259 920.353 852.009 917.572 851.967 915.411C851.926 913.235 851.954 909.187 852.904 905.773C853.234 904.616 853.647 903.666 854.005 902.813C854.859 905.016 855.699 907.246 856.249 908.609C857.075 910.633 862.996 913.593 865.322 916.003C867.649 918.412 870.238 923.079 869.99 920.822C869.742 918.564 871.766 914.874 873.212 911.432C873.666 910.358 873.776 909.325 873.776 908.361C874.327 909.256 874.74 910.11 874.85 910.867C875.249 913.359 876.64 907.604 878.43 904.327C880.22 901.064 885.699 896.149 885.988 893.74C886.181 892.115 886.429 889.472 886.691 886.869C887.31 887.682 888.054 888.577 888.742 889.719C890.78 893.106 891.991 897.43 892.583 899.77C893.175 902.111 899.082 903.694 901.643 904.19C904.203 904.672 905.594 906.062 912.093 909.986C918.591 913.91 922.295 910.702 922.295 910.702C922.295 910.702 919.018 906.117 917.352 903.997C915.686 901.877 915.603 899.77 913.538 892.377C911.473 884.983 906.296 883.125 903.722 879.848C901.147 876.571 897.54 879.091 894.731 876.309C893.024 874.616 891.909 873.983 890.697 874.12C889.458 866.052 887.475 858.452 884.529 852.449C883.524 850.398 881.197 846.997 879.118 843.817C879.104 843.445 879.063 843.142 878.994 842.977C878.843 842.619 878.292 841.545 877.549 840.154C877.631 839.948 877.714 839.755 877.796 839.562C877.906 839.315 878.017 839.025 878.141 838.736C878.622 838.888 879.118 839.067 879.655 839.287C881.858 840.237 886.112 843.982 888.962 846.983L889.389 848.457C887.998 849.861 890.848 855.079 891.083 858.948C891.317 862.817 892.019 868.475 894.882 869.343C897.746 870.21 901.436 871.353 902.069 873.349C902.703 875.346 904.919 878.581 906.874 878.292C908.83 878.003 912.12 878.237 915.039 879.985C916.636 880.935 919.059 881.417 921.372 881.624C921.372 882.959 921.4 884.157 921.579 884.914C922.116 887.048 921.771 890.725 922.721 890.174C923.671 889.623 926.948 886.925 927.21 886.319C927.416 885.837 927.32 883.606 928.821 882.051C932.042 882.835 936.49 884.653 937.219 884.075C937.921 883.524 935.388 881.183 933.213 878.98C935.113 877.08 936.6 874.409 937.137 872.33C937.921 869.315 940.427 866.782 941.474 864.841C942.534 862.899 943.855 859.154 944.365 853.399C944.392 853.014 944.42 852.615 944.434 852.215C947.449 852.367 951.015 852.339 954.305 852.257C954.278 852.725 954.264 853.152 954.237 853.537C954.044 854.129 953.824 854.749 953.576 855.354C952.722 857.378 949.445 862.927 949.225 865.708C949.019 868.489 948.66 872.165 949.61 874.464C950.547 876.777 952.447 878.526 953.245 880.041C954.044 881.569 954.553 884.887 956.178 885.575C957.802 886.264 960.928 890.201 963.062 892.528C964.136 893.698 965.127 895.089 965.719 896.025C965.471 894.139 966.532 890.256 967.743 888.769C969.203 886.993 969.257 881.762 969.932 880.137C970.621 878.512 971.612 875.58 971.626 874.396C971.653 873.211 970.221 872.606 970.91 868.131C971.598 863.643 968.803 861.757 966.765 859.223C964.728 856.69 959.358 851.816 956.935 852.477L956.577 852.201C961.079 852.05 964.576 851.816 964.576 851.816C964.576 851.816 958.656 843.073 956.494 842.289C956.274 842.206 956.068 842.096 955.847 841.972C955.916 839.617 955.985 837.731 956.026 837.249C956.137 835.804 955.847 834.523 955.517 833.725C955.187 832.926 953.562 832.073 953.149 829.925C952.942 828.878 952.433 827.46 952.02 826.318L952.047 825.615C952.626 825.725 953.259 825.822 953.947 825.932C954.223 826.262 954.512 826.648 954.815 827.157C955.779 828.754 957.362 830.668 958.573 832.141H958.546C958.546 832.141 960.308 834.799 960.556 837.043C960.804 839.301 962.318 841.366 968.459 846.088C974.6 850.811 983.053 848.87 986.605 847.245C990.02 845.689 999.217 840.843 1003.22 838.668C1003.39 839.067 1003.55 839.452 1003.72 839.852H1004.04C1005.25 842.082 1006.94 844.078 1007.26 846.777C1009.54 841.93 1014.72 840.457 1017.62 836.203C1021.62 832.486 1023.42 826.868 1024.72 821.416C1025.5 817.616 1024.7 813.692 1023.77 810.03C1022.86 806.368 1019.87 804.11 1018.4 800.792C1016.01 801.7 1013.62 802.554 1011.21 803.38C1009.78 802.526 1008.25 801.631 1006.9 800.833C1007.02 800.585 1007.16 800.323 1007.28 800.076C1008.37 799.277 1009.46 798.492 1010.59 797.763C1015 794.555 1018.82 790.41 1021.96 785.674C1024.38 783.65 1026.62 781.709 1028.16 781.076C1028.18 781.64 1028.24 782.191 1028.32 782.755C1028.72 787.368 1031.56 791.03 1034.09 794.472C1034.96 795.518 1035.76 796.702 1036.68 797.708C1035.4 798.892 1034.48 800.695 1034.05 802.471C1033.75 803.738 1033.69 805.06 1033.87 806.34C1033.75 806.533 1033.64 806.712 1033.51 806.905C1033.68 806.987 1033.86 807.07 1034.02 807.152C1034.33 808.447 1034.9 809.658 1035.8 810.636C1037.89 812.935 1040.88 812.728 1043.6 812.549C1046.51 812.357 1049.26 811.682 1052.04 810.718C1052.49 810.567 1052.95 810.402 1053.41 810.236C1053.56 810.236 1053.7 810.236 1053.85 810.223C1054.85 810.113 1055.9 810.044 1056.93 809.934C1055.21 810.911 1053.46 811.875 1051.92 813.21C1048 816.969 1045.56 822.215 1043.41 827.391C1042.38 830.792 1040.98 834.262 1041.46 837.979C1041.73 843.789 1046.18 847.988 1046.7 853.73C1049.26 851.073 1052.6 849.586 1055.03 846.736C1061.94 841.504 1066.28 833.105 1069.17 824.514C1068.19 830.076 1068.06 836.12 1070.63 841.187C1072.64 844.891 1075.08 848.374 1078.04 851.169C1081.26 854.046 1084.44 857.254 1088.41 858.755C1090.69 859.705 1093.09 860.724 1094.66 862.927C1094.33 859.182 1096.75 856.043 1096.83 852.312C1099.24 843.899 1097.53 834.785 1094.49 826.868C1095.47 827.006 1096.5 826.992 1097.36 827.653C1101.02 830.021 1104.65 832.665 1108.81 833.78C1114.84 836.589 1121.49 835.666 1127.81 835.157C1128.94 835.102 1129.99 835.68 1131.02 836.107C1128.53 833.023 1127.85 828.837 1126.13 825.271C1124.7 822.091 1122.55 819.42 1120.39 816.859C1113.86 807.373 1102.41 803.504 1092.08 805.225C1087.72 805.899 1084.06 809.314 1079.58 809.452C1081.27 812.343 1083.31 815 1084.68 818.126C1083.11 818.167 1081.56 817.836 1080.04 817.437C1077.58 816.804 1075.08 817.575 1072.6 817.244C1071.54 819.186 1070.44 821.113 1069.57 823.178C1070.65 819.406 1071.57 815.468 1071.04 811.503C1070.59 809.617 1069.06 808.268 1068.91 806.244C1067.95 806.67 1066.96 807.152 1066.9 808.474L1067.01 807.097C1066.02 807.373 1065.01 807.565 1064.01 807.758C1064.19 807.621 1064.37 807.483 1064.55 807.331C1063.11 805.61 1061.71 803.834 1060.07 802.347C1057.55 799.952 1054.29 798.85 1051.11 798.065C1048.88 797.473 1046.55 797.997 1044.31 797.446C1045.45 793.99 1046.99 790.7 1047.69 787.092C1047.9 786.707 1048.07 786.294 1048.2 785.881C1050.21 786.666 1052.29 787.202 1054.4 787.395C1054.55 787.065 1054.84 786.831 1055.24 786.845C1056.3 786.886 1057.3 787.216 1058.31 787.547C1058.31 787.519 1058.3 787.492 1058.3 787.478C1058.83 787.409 1059.37 787.381 1059.91 787.354C1059.87 787.423 1059.81 787.478 1059.77 787.547C1057.95 789.777 1054.37 794.623 1054.37 794.623C1054.37 794.623 1058.27 798.121 1065.29 794.031C1065.3 794.031 1065.32 794.018 1065.33 794.004C1065.36 794.968 1065.44 795.931 1065.66 796.868C1066.6 799.098 1068.13 800.929 1069.25 803.036C1071.57 801.824 1074.31 800.805 1075.59 798.107C1077.35 794.651 1079.02 791.085 1079.97 787.23C1082.32 786.555 1084.9 785.536 1085.93 784.215C1088.9 787.134 1092.29 789.46 1095.58 791.911C1097.98 793.701 1101.16 794.362 1102.77 797.253C1102.49 795.408 1102.6 793.563 1102.77 791.732C1103.92 794.761 1104.76 797.556 1105.11 795.615C1105.44 793.77 1107.25 791.484 1109.26 789.103C1112.17 790.548 1115.31 791.65 1117.91 791.457C1123.72 791.044 1129.67 789.873 1134.05 787.629C1135.27 788.648 1136.42 789.295 1137.35 789.474C1140.11 789.984 1145.87 795.436 1148.1 796.441C1150.34 797.446 1155.22 804.302 1155.22 804.302C1155.22 804.302 1155.53 798.864 1156.27 794.981C1157.03 791.099 1160.17 778.061 1158.94 774.825C1158.87 774.646 1158.79 774.426 1158.68 774.164C1162.78 775.5 1167.19 775.486 1171.33 776.684C1172.07 769.924 1174.25 763.095 1172.49 756.279C1170.23 748.294 1164.36 740.818 1156.68 739.717C1152.65 738.67 1148.35 739.469 1144.69 741.548C1143.45 742.979 1142.58 744.742 1141.63 746.422C1141.25 745.843 1140.81 745.306 1140.33 744.838C1140.08 744.604 1139.83 744.384 1139.57 744.177C1139.02 743.117 1138.36 742.153 1137.46 741.382C1137.13 741.41 1136.8 741.437 1136.48 741.465C1136.42 741.41 1136.36 741.341 1136.29 741.286C1134.36 739.648 1131.65 739.895 1129.41 740.432C1127.4 740.914 1125.44 741.878 1123.75 743.186C1122.34 744.274 1121.09 745.568 1120.02 747.055C1120.02 746.27 1119.96 745.485 1119.85 744.714C1119.77 744.081 1119.63 743.461 1119.47 742.856C1119.47 742.856 1119.47 742.856 1119.47 742.842C1120.89 740.997 1122.37 739.207 1124.4 738.257C1127.25 736.508 1130.67 736.77 1133.76 737.376C1135.11 738.67 1136.46 737.087 1137.76 736.591C1137.24 732.915 1135.44 729.542 1132.49 727.725C1132.56 727.532 1132.64 727.353 1132.73 727.16C1135.34 724.296 1138.33 721.901 1140.89 718.982C1142.87 716.71 1144.5 713.874 1145.46 710.817C1145.65 710.528 1145.85 710.225 1146.03 709.922C1146.2 709.771 1146.38 709.633 1146.59 709.509C1147.11 708.752 1147.61 707.967 1148.15 707.251C1150.22 707.802 1150.43 711.01 1152.54 711.864C1152.81 712.469 1153.07 713.075 1153.34 713.695C1151.99 713.598 1150.68 713.888 1149.48 714.617C1148.68 714.92 1147.87 715.223 1147.06 715.512C1143.19 718.706 1139.75 723.002 1138.7 728.413C1138.26 731.401 1140.28 733.562 1141.74 735.738C1146.18 733.782 1148.68 728.991 1150.94 724.599C1151.84 722.589 1153.07 720.689 1153.25 718.39C1153.42 717.66 1153.58 716.93 1153.75 716.228C1154.29 715.347 1154.78 714.425 1155.35 713.585C1156.09 713.667 1156.79 713.915 1157.48 714.232C1159.34 715.677 1161.25 717.04 1163.06 718.596C1163.88 719.312 1164.81 719.904 1165.76 720.441C1164.27 720.923 1162.84 721.584 1161.51 722.52C1155.61 723.305 1151.59 728.853 1147.93 733.576C1151 735.572 1154.56 736.04 1158.03 736.44C1162.97 736.784 1167.92 736.33 1172.78 735.324C1172.75 735.366 1172.72 735.421 1172.69 735.476C1171.58 737.266 1169.47 740.281 1171.81 739.482C1174.15 738.684 1180.29 736.922 1181.62 735.297C1182.94 733.672 1183.83 733.383 1183.83 733.383C1183.83 733.383 1186.12 733.342 1188.51 732.901C1186.92 735.173 1183.28 737.541 1181.67 737.706C1179.83 737.899 1177.51 742.415 1177.73 746.311C1177.95 750.194 1176.36 756.321 1177.65 759.721C1178.93 763.122 1176.04 769.194 1175.94 771.81C1175.85 774.426 1174.22 778.501 1175.49 778.184C1176.76 777.868 1181.4 775.885 1181.89 775.279C1182.39 774.674 1183.27 770.667 1187.32 770.24C1191.36 769.813 1195.98 765.793 1197.88 762.626C1199.78 759.446 1203.47 757.395 1205.32 755.522C1207.18 753.65 1209.94 749.822 1212.43 743.42C1212.95 742.071 1213.38 740.584 1213.7 739.083C1214.44 739.482 1214.37 738.849 1213.96 737.665C1214.81 732.461 1214.33 727.298 1212 726.554C1214.54 724.062 1217.69 721.212 1219.99 719.904C1220.94 720.18 1221.76 720.386 1222.31 720.427C1223.77 720.538 1226.86 722.314 1229.09 723.704C1229.56 724.31 1229.83 724.902 1229.31 726.224C1228.19 729.046 1227.12 736.109 1226.75 737.445C1226.47 738.422 1224.7 743.902 1223.65 746.876C1223.24 747.495 1222.78 748.129 1222.29 748.735C1220.63 750.772 1215.04 756.004 1213.89 759.102C1212.72 762.2 1211.11 766.275 1211.41 769.221C1211.71 772.168 1213.3 774.797 1213.7 776.794C1214.09 778.804 1213.57 782.755 1215.21 784.077C1216.83 785.399 1219.09 790.934 1220.74 794.293C1221.58 795.986 1222.25 797.9 1222.62 799.167C1222.96 796.937 1225.45 792.847 1227.35 791.553C1229.61 790.011 1231.42 784.063 1232.72 782.425C1234.04 780.8 1236.15 777.785 1236.56 776.436C1236.98 775.087 1235.56 773.93 1237.83 769.042C1240.12 764.155 1237.56 761.071 1236.07 757.505C1234.58 753.939 1230.08 746.6 1227.11 746.532L1225.91 744.866C1227.68 739.372 1230.69 730.065 1231.14 728.853C1231.75 727.243 1231.84 725.687 1231.73 724.668C1231.69 724.214 1231.35 723.663 1231 722.961C1230.78 722.121 1230.52 721.143 1230.29 720.111C1230.29 719.918 1230.29 719.739 1230.29 719.546C1230.41 718.28 1230.29 716.504 1230.19 715.044L1230.86 712.993C1231.53 713.516 1232.45 714.48 1233.09 716.93C1233.66 719.064 1234.83 721.79 1235.72 723.869H1235.68C1235.68 723.869 1236.81 727.477 1236.34 730.12C1235.88 732.777 1236.92 735.641 1242.36 743.076C1247.8 750.511 1258.1 751.103 1262.68 750.442C1267.27 749.781 1280.21 747.124 1285.11 746.05C1290.03 744.976 1293.95 745.127 1291.91 743.475C1289.87 741.823 1288.5 741.038 1287.89 738.877C1287.29 736.701 1285.91 735.916 1283.22 733.411C1280.54 730.905 1275.39 724.365 1270.5 720.414C1270.13 720.111 1269.73 719.835 1269.33 719.56C1269.81 719.064 1270.31 718.569 1270.76 718.045C1275.73 720.978 1280.13 722.754 1282.59 722.135C1286.4 721.171 1286.57 719.298 1288.04 719.147C1289.52 718.996 1290.49 719.45 1292.46 718.679C1293.33 718.335 1294.94 717.811 1296.74 717.261C1296.91 717.426 1297.06 717.605 1297.23 717.756C1300.45 720.634 1303.63 723.842 1307.59 725.343C1309.88 726.293 1312.27 727.311 1313.84 729.514C1313.51 725.769 1315.94 722.63 1316.02 718.899C1317.01 715.416 1317.3 711.809 1317.08 708.215C1318.99 704.883 1320.82 701.51 1322.38 697.944C1324.17 698.963 1326.02 699.844 1328 700.367C1328.6 700.656 1329.24 700.891 1329.86 701.097C1335.89 707.224 1342.4 713.24 1350.41 715.609C1355.27 717.633 1360.53 717.357 1365.47 718.872C1364.75 711.767 1365.89 704.567 1365.39 697.462C1365.98 698.109 1366.58 698.633 1367.15 698.88C1369.99 700.106 1373.07 705.764 1374.93 708.201C1376.81 710.638 1374.75 701.717 1376.63 698.082C1378.5 694.447 1381.65 678.118 1382.2 674.332C1382.37 673.217 1382.23 671.51 1381.89 669.513C1385.31 669.568 1388.99 669.458 1392.96 669.114C1394.47 671.565 1395.92 673.465 1398.44 674.043C1402.1 674.896 1405.39 674.91 1408.43 676.039C1411.47 677.168 1413.26 676.108 1414.09 675.722C1414.93 675.337 1424.22 676.907 1428.11 677.664C1431.99 678.421 1425.01 672.515 1424.31 668.797C1423.62 665.066 1419.72 655.993 1417.39 655.291C1415.2 654.644 1417.15 651.436 1409.77 649.15C1412.97 648.228 1415.88 646.782 1417.96 645.694C1422.05 643.574 1429.21 638.797 1432.55 637.268C1435.9 635.74 1439.66 634.033 1439.66 634.033C1439.66 634.033 1435.29 631.1 1429.8 628.415C1430.85 626.681 1432.61 623.225 1432.61 622.537C1432.61 621.71 1430.67 617.842 1433.7 614.785C1436.72 611.729 1437.81 605.368 1437.25 601.499C1436.68 597.63 1438.34 593.472 1438.6 590.705C1438.87 587.937 1438.57 582.953 1436.34 576.056C1434.11 569.185 1428.05 561.227 1424.72 562.535C1424.72 562.508 1424.72 562.48 1424.72 562.439C1426.66 561.351 1428.39 559.809 1430.29 558.694C1430.91 559.121 1431.51 559.272 1432.17 558.997C1433.48 560.663 1435.21 561.985 1438.54 560.016C1440.06 559.121 1441.14 558.46 1442.04 557.84C1442.98 559.575 1443.79 561.035 1444.04 561.599C1444.46 562.59 1446.68 568.249 1447.81 571.388C1447.88 572.173 1447.93 572.999 1447.93 573.811C1447.93 576.579 1446.86 584.592 1447.97 587.91C1449.09 591.228 1450.48 595.647 1452.71 597.85C1454.93 600.053 1457.98 601.155 1459.63 602.532C1461.3 603.908 1463.52 607.502 1465.73 607.488C1467.95 607.488 1473.49 610.503 1477.09 612.155C1478.91 612.995 1480.73 614.097 1481.87 614.895C1480.66 612.83 1479.97 607.818 1480.66 605.505C1481.48 602.738 1478.98 596.666 1478.96 594.45C1478.96 592.233 1478.68 588.364 1478.11 586.987C1477.56 585.611 1475.62 585.611 1474.21 580.09C1472.81 574.569 1468.67 573.742 1465.06 571.815C1461.45 569.887 1452.87 566.872 1450.38 568.814L1448.29 568.249C1446.97 564.862 1445.11 560.098 1443.72 556.505C1444.49 555.803 1445.15 555.045 1445.98 553.958C1447.35 552.14 1449.06 552.994 1450.33 552.251C1452.36 553.366 1455.5 554.453 1460.58 555.789C1470 558.253 1478.83 551.865 1482.15 548.258C1485.45 544.651 1494.27 533.843 1497.58 529.685C1500.88 525.527 1504.2 523.035 1501.43 523.035C1500.06 523.035 1498.96 523.104 1497.95 523.007C1497.19 521.451 1495.82 519.882 1496.41 517.968C1497.48 512.309 1497.76 506.458 1496.82 500.731C1496.24 498.06 1497.11 495.388 1497.68 492.814C1506.13 499.904 1516.07 505.549 1526.77 506.238C1530.86 506.912 1534.97 506.486 1539.05 505.894C1538.72 501.777 1538.81 497.633 1538.48 493.516C1541.09 491.492 1544.57 488.188 1545.68 485.269C1547.06 481.676 1549.82 479.17 1551.74 478.055C1553.68 476.939 1553.38 472.52 1552.56 470.303C1551.72 468.1 1554.19 464.493 1556.12 461.726C1558.05 458.958 1554.72 453.437 1552.21 449.844C1550.68 447.655 1549.68 444.35 1548.62 442.037C1550.06 441.39 1551.76 440.702 1553.62 440.041C1555.25 447.283 1558.74 455.2 1563.17 463.02C1561.99 463.736 1561.45 465.099 1561.12 467.784C1560.58 472.217 1555.6 472.506 1555.61 477.201C1555.63 481.91 1552.32 487.169 1555.67 495.182C1559.01 503.195 1560.4 505.123 1560.4 508.165C1560.4 511.208 1560.71 517.569 1560.71 517.569C1560.71 517.569 1566.24 517.83 1569.26 509.804C1572.27 501.777 1572.55 499.56 1574.47 497.344C1576.4 495.127 1580.53 489.578 1579.42 487.1C1578.3 484.608 1576.35 479.913 1575.78 475.494C1575.59 473.993 1575.62 472.685 1575.6 471.528C1577.67 473.662 1579.73 475.838 1581.04 477.132C1582.98 479.06 1591.28 479.597 1595.17 481.235C1599.05 482.887 1604.31 487.017 1602.93 484.525C1601.54 482.047 1602.08 476.788 1602.07 472.079C1602.05 467.384 1598.44 464.906 1598.72 461.863C1598.98 458.821 1599.81 456.604 1597.3 451.909C1594.8 447.214 1594.8 446.388 1590.35 440.867C1588.93 439.105 1587.91 438.168 1587.07 437.631C1587.31 436.819 1587.51 435.993 1587.62 435.112C1587.82 434.162 1587.9 433.226 1587.91 432.289C1588.02 432.358 1588.13 432.455 1588.24 432.524C1590.86 434.121 1593.49 435.966 1596.48 436.461C1598.21 436.805 1600.03 437.205 1601.4 438.554C1600.76 435.938 1602.12 433.35 1601.76 430.679C1602.53 424.345 1600.3 418.081 1597.25 412.877C1597.96 412.835 1598.69 412.684 1599.38 413.028C1602.26 414.198 1605.14 415.561 1608.23 415.768C1612.85 416.911 1617.49 415.313 1621.93 414.061C1622.73 413.868 1623.54 414.129 1624.33 414.281C1622.21 412.436 1621.26 409.545 1619.63 407.245C1618.26 405.18 1616.43 403.583 1614.59 402.055C1613.64 401.091 1612.61 400.251 1611.52 399.535C1612.4 398.764 1613.2 397.897 1613.84 396.795C1611.96 395.722 1610.11 394.593 1608.12 393.822C1605.03 392.541 1601.62 392.748 1598.4 393.216C1596.13 393.505 1594.09 394.895 1591.81 395.24C1591.84 391.55 1592.29 387.86 1591.86 384.211C1591.93 383.771 1591.97 383.317 1591.97 382.876C1594.11 382.848 1596.21 382.559 1598.25 381.926C1598.31 381.554 1598.5 381.224 1598.87 381.086C1599.88 380.714 1600.92 380.646 1601.98 380.563C1601.98 380.535 1601.95 380.522 1601.94 380.494C1604.13 379.296 1606.48 378.47 1608.94 378.498C1609.79 381.196 1610.26 384.129 1611.7 386.524C1613.26 388.259 1615.24 389.402 1616.95 390.944C1618.77 388.92 1621.02 386.91 1621.41 383.895C1622.06 379.737 1622.58 375.496 1622.18 371.283C1622.01 369.672 1621.96 368.048 1622.08 366.437C1623.16 366.189 1624.22 365.955 1625.31 365.776C1625.79 364.964 1626.28 364.165 1626.78 363.367C1626.3 364.289 1625.8 365.184 1625.32 366.12C1629.45 368.24 1633.94 369.232 1638.34 370.43C1641.14 371.201 1644.32 370.595 1646.73 372.715C1645.05 369.328 1644.9 365.39 1643.63 361.838C1642.52 357.419 1639.89 353.729 1637.02 350.576C1636 349.337 1633.88 348.593 1634.03 346.625C1634.7 344.546 1635.56 342.549 1636.57 340.663C1640.46 339.809 1644.5 339.892 1648.38 338.832C1650.72 342.026 1653.75 344.38 1656.42 347.189C1657.38 344.89 1658.69 342.825 1660.03 340.773C1660.87 340.016 1661.63 339.176 1662.31 338.24C1663.79 336.216 1664.93 333.862 1665.7 331.397C1666.64 328.409 1667.11 325.215 1667.26 321.994C1667.41 321.071 1667.53 320.149 1667.6 319.199C1667.78 317.781 1667.57 316.197 1668.44 315.027C1670.77 317.615 1672.08 321.195 1674.73 323.439C1678.99 327.501 1684.6 329.084 1690.06 329.662C1695.15 329.979 1700 327.694 1705.01 327.157C1703.66 320.507 1703.65 313.265 1699.93 307.523C1695.4 300.873 1687.62 296.082 1680.05 297.996C1675.94 298.547 1672.14 300.956 1669.32 304.315C1668.59 306.133 1668.3 308.115 1667.92 310.07C1667.38 309.671 1666.8 309.341 1666.21 309.093C1665.91 308.969 1665.6 308.859 1665.29 308.762C1664.45 307.978 1663.54 307.317 1662.45 306.945C1662.15 307.097 1661.85 307.248 1661.56 307.399C1661.47 307.372 1661.41 307.331 1661.32 307.303C1659.01 306.491 1656.53 307.771 1654.59 309.134C1652.84 310.36 1651.3 312.012 1650.1 313.898C1649.11 315.454 1648.33 317.161 1647.76 318.951C1647.53 318.221 1647.24 317.505 1646.91 316.817C1646.63 316.252 1646.33 315.715 1645.97 315.22C1645.97 315.22 1645.97 315.22 1645.97 315.206C1646.76 312.934 1647.6 310.676 1649.22 309.01C1651.38 306.27 1654.67 305.21 1657.77 304.605C1659.42 305.307 1660.22 303.297 1661.31 302.333C1659.71 299.084 1656.99 296.592 1653.67 296.013C1653.67 295.807 1653.7 295.6 1653.72 295.394C1655.32 291.704 1657.4 288.303 1658.93 284.572C1660.11 281.681 1660.77 278.376 1660.76 275.141C1660.85 274.797 1660.95 274.439 1661.02 274.081C1661.14 273.874 1661.27 273.668 1661.43 273.475C1661.69 272.566 1661.91 271.63 1662.22 270.749C1664.34 270.46 1665.51 273.406 1667.75 273.406C1668.19 273.874 1668.62 274.342 1669.06 274.824C1667.77 275.251 1666.61 276.022 1665.71 277.165C1665.05 277.757 1664.38 278.349 1663.7 278.941C1661.03 283.415 1659.09 288.785 1659.75 294.265C1660.25 297.239 1662.8 298.505 1664.82 299.992C1668.4 296.468 1669.29 291.002 1670.09 286.004C1670.33 283.773 1670.91 281.515 1670.4 279.285C1670.33 278.528 1670.27 277.784 1670.2 277.055C1670.44 276.022 1670.63 274.962 1670.91 273.971C1671.64 273.764 1672.36 273.723 1673.11 273.764C1675.3 274.411 1677.51 274.962 1679.66 275.733C1680.65 276.091 1681.7 276.297 1682.76 276.435C1681.51 277.454 1680.36 278.624 1679.4 280.015C1674.07 283.016 1671.98 289.776 1669.97 295.614C1673.47 296.316 1676.96 295.394 1680.34 294.444C1687.58 292.062 1694.26 287.931 1700.37 283.016C1702.3 282.727 1704.07 281.502 1705.05 279.519C1706.29 277.041 1705.88 273.916 1704.11 271.919C1702.39 269.964 1699.79 269.455 1697.46 269.331C1694.63 269.179 1691.65 269.606 1688.97 270.708C1688.68 270.818 1688.4 270.969 1688.14 271.121C1687.25 267.389 1685.69 263.865 1683.54 260.836C1682.33 259.129 1680.93 257.435 1679.35 256.113C1680.2 255.797 1681.05 255.508 1681.92 255.232C1683.81 255.618 1685.46 254.213 1687.22 253.732C1691.35 252.424 1695.38 250.799 1699.3 248.844C1703.87 246.008 1708.26 242.758 1712.11 238.807C1714.73 236.108 1716.2 232.185 1719.3 230.092C1716.17 229.706 1713.37 227.972 1710.31 227.283C1706.61 226.374 1702.78 225.273 1698.98 226.099C1695.41 226.664 1692.09 228.316 1688.75 229.734C1685.32 231.675 1682.53 234.759 1679.74 237.692C1676.15 242.511 1672.17 247.632 1671.52 254.145C1671.57 254.213 1671.62 254.31 1671.66 254.392C1671.55 254.392 1671.46 254.392 1671.35 254.392C1669.83 254.475 1668.29 255.122 1667.08 256.141C1665.43 257.532 1664.32 259.5 1663.64 261.648C1662.74 263.245 1662.07 265.255 1662.49 267.073C1662.31 267.403 1662.15 267.761 1662.01 268.133C1661.85 267.045 1661.25 265.985 1660.46 265.324C1659.05 263.906 1657.41 262.818 1656.1 261.304C1655.69 256.761 1655.29 251.763 1652.25 248.334C1651.33 247.123 1650.32 246.077 1649.25 245.14C1649.21 244.727 1649.19 244.314 1649.29 243.915C1649.9 241.45 1650.83 239.743 1649.43 235.571C1648.04 231.4 1648.13 230.725 1645.3 225.617C1642.46 220.509 1641.72 222.478 1639.31 220.468C1639.28 220.44 1639.25 220.427 1639.22 220.413C1640.33 220.22 1641.4 219.876 1642.45 219.366C1645.41 217.866 1646.89 214.672 1648.16 211.477C1648.77 212.18 1649.39 212.882 1650.03 213.529C1653.5 216.131 1656.96 218.761 1660.65 220.977C1658.07 223.166 1655.75 225.755 1654.58 229.224C1651.57 235.255 1653.14 243.942 1658.65 247.384C1659.68 247.921 1660.73 248.486 1661.74 249.119C1662.29 248.348 1662.82 247.605 1663.37 246.834C1665.74 245.553 1667.97 243.901 1669.76 241.74C1675.13 235.654 1680.09 228.646 1682.06 220.206C1681.73 218.554 1681.88 216.31 1680.2 215.553C1680.13 215.525 1680.05 215.498 1679.96 215.47C1680.03 214.988 1680.12 214.52 1680.21 214.052C1681.88 205.722 1680.36 196.567 1677 188.705C1678.52 186.929 1680.16 184.822 1680.32 183.652C1680.6 181.835 1681.15 181.229 1681.15 181.229C1681.15 181.229 1682.81 180.183 1684.38 178.806C1684.18 181.229 1682.51 184.63 1681.4 185.456C1680.12 186.406 1680.35 190.867 1682.17 193.703C1683.99 196.553 1685.43 201.895 1687.84 203.905C1690.24 205.915 1690.7 211.794 1691.75 213.818C1692.8 215.842 1693.35 219.656 1694.15 218.843C1694.94 218.045 1697.52 214.506 1697.62 213.832C1697.71 213.157 1696.67 209.729 1699.46 207.622C1702.27 205.516 1703.93 200.449 1703.98 197.2C1704.02 193.951 1705.86 190.77 1706.43 188.54C1706.99 186.309 1707.39 182.193 1706.5 176.245C1705.6 170.325 1701.79 163.014 1698.96 163.647C1699.82 160.48 1700.99 156.681 1702.19 154.753C1704.46 151.104 1703.38 152.054 1703.38 152.054L1702.93 149.893C1702.93 149.893 1701.73 143.436 1702.21 143.353C1702.7 143.27 1706.26 149.631 1707.9 152.151C1709.55 154.67 1711.18 153.156 1711.56 155.799C1711.95 158.429 1714.18 164.267 1714.47 165.437C1714.69 166.304 1715.72 171.233 1716.23 173.946C1716.19 174.593 1716.12 175.281 1716.02 175.942C1715.68 178.214 1713.79 184.643 1714.26 187.507C1714.73 190.371 1715.28 194.171 1716.77 196.277C1718.25 198.37 1720.54 199.678 1721.68 201.014C1722.84 202.363 1724.15 205.585 1725.91 205.874C1727.67 206.163 1731.69 209.357 1734.35 211.188C1735.7 212.111 1736.99 213.253 1737.8 214.066C1737.1 212.221 1737.2 208.022 1738.04 206.218C1739.04 204.056 1737.82 198.756 1738.09 196.938C1738.37 195.121 1738.63 191.913 1738.37 190.715C1738.11 189.504 1736.57 189.256 1736.15 184.547C1735.74 179.838 1732.54 178.627 1729.92 176.575C1727.3 174.524 1720.84 170.93 1718.63 172.197L1717.03 171.467C1715.98 166.525 1714.22 158.14 1714.04 157.025C1713.79 155.538 1713.2 154.312 1712.69 153.596C1712.18 152.867 1710.36 152.426 1709.44 150.347C1708.99 149.342 1708.13 148.034 1707.45 146.974L1707.06 145.115C1707.76 145.225 1708.86 145.542 1710.39 147.125C1711.71 148.502 1713.74 150.044 1715.29 151.228H1715.27C1715.27 151.228 1717.63 153.486 1718.42 155.703C1719.2 157.92 1721.2 159.641 1728.39 162.876C1735.56 166.125 1743.41 162.05 1746.51 159.517C1749.6 156.997 1757.99 149.287 1761.15 146.313C1764.32 143.339 1767.27 141.728 1765.07 141.37C1762.86 141.012 1761.5 141.026 1760.14 139.649C1758.77 138.273 1757.41 138.286 1754.35 137.557C1751.31 136.827 1744.72 134.142 1739.43 133.302C1734.14 132.449 1727.24 134.817 1723.35 138.149C1719.47 141.467 1716.85 148.254 1717.68 150.237L1716.97 150.526C1716.86 150.485 1716.74 150.444 1716.62 150.375C1715.16 149.659 1713.37 147.112 1711.74 145.418C1710.13 143.711 1709.95 143.849 1708.55 143.78C1707.84 143.752 1706.87 143.422 1706.07 143.119C1704.27 140.93 1702.21 138.686 1700 136.441C1700.07 136.235 1700.15 136.028 1700.22 135.822C1700.51 135.065 1700.75 134.294 1700.99 133.523C1701.43 133.66 1701.88 133.77 1702.35 133.839C1706.15 135.051 1710.08 134.06 1713.49 132.022C1714.16 132.614 1714.62 133.013 1714.62 133.013C1714.62 133.013 1714.5 132.435 1714.33 131.499C1715 131.058 1715.65 130.59 1716.27 130.081C1717 128.663 1717.79 127.12 1718.49 125.51C1719.93 127.41 1722.71 130.094 1730.08 130.879C1738.52 131.774 1746.66 131.691 1749.05 129.296C1751.45 126.9 1750.77 125.386 1751.79 124.628C1752.81 123.857 1753.73 123.775 1754.85 122.329C1755.98 120.884 1759.49 117.042 1761.38 115.018C1763.26 112.994 1765.05 111.659 1766.22 111.384C1767.39 111.108 1756.36 107.942 1752.07 106.551C1747.77 105.16 1734.84 102.613 1728.65 106.262C1725.36 108.203 1722.44 109.814 1720.28 111.563C1720 110.805 1719.66 110.062 1719.2 109.332C1718.78 108.658 1718.35 107.983 1717.9 107.322C1719.58 106.221 1721.65 104.389 1723.97 102.338C1725.25 101.209 1726.65 99.9699 1727.99 98.8684C1730.67 99.1989 1733.89 99.309 1735.04 99.3365C1738.33 101.347 1743.09 102.985 1746.26 101.663C1751.08 99.6532 1751.42 100.41 1754.3 99.2402C1757.19 98.0836 1761.8 94.4076 1764.91 90.2634C1768.03 86.1192 1770.77 81.4518 1772.53 81.7272C1774.29 82.0163 1761.83 77.9134 1757.2 77.17C1752.58 76.4265 1747.21 77.6518 1743.45 80.0613C1741.14 81.5482 1739.64 82.1953 1738.49 82.6359C1737.79 81.3004 1737.07 79.9236 1736.44 78.6982C1734.35 74.6504 1734.76 76.3439 1733.88 71.7867C1733.69 70.7954 1733.43 70.0381 1733.08 69.4323C1733.78 69.6801 1734.67 69.9142 1736.39 70.107C1740.61 70.5475 1745.87 68.62 1748.82 66.9954C1751.78 65.3845 1756.03 62.5896 1759.9 63.8976C1763.76 65.2193 1756.05 59.5606 1753.79 56.6418C1753.46 56.215 1752.94 55.6918 1752.29 55.1273C1753.09 55.2099 1753.78 55.2099 1754.28 55.1273C1757.01 54.673 1758.47 55.9534 1759.21 57.8534C1759.96 59.7534 1763.92 57.7983 1766.99 55.7606C1770.06 53.723 1772.14 55.7469 1775.03 55.9947C1777.92 56.2425 1783.58 58.115 1783.68 56.9722C1783.78 55.8295 1777.61 51.8367 1776.44 49.6752C1775.27 47.4998 1772.28 43.094 1769.48 41.7034C1766.69 40.3129 1764.87 37.8484 1764.12 36.1825C1763.36 34.5028 1759.78 34.4201 1757.95 34.9571C1756.12 35.4941 1753.39 33.181 1751.31 31.3912C1749.69 30.0006 1746.49 31.1158 1743.71 32.5477C1744 31.4325 1744.25 30.2897 1744.45 29.147C1747.22 28.1557 1750.03 26.9992 1752.85 25.6637C1753.35 26.6825 1754.39 27.2332 1756.53 27.7013C1760.05 28.4586 1759.93 32.6028 1763.72 32.9194C1767.49 33.2499 1771.49 36.3477 1778.16 34.1586C1784.82 31.9694 1786.47 30.9644 1788.91 31.1709C1791.36 31.3774 1796.48 31.5977 1796.48 31.5977C1796.48 31.5977 1797.08 27.0405 1790.84 23.9702L1790.98 24.0115ZM402.44 962.236C402.22 962.374 402.014 962.497 401.807 962.635C402.096 962.236 402.385 961.85 402.674 961.437C402.826 961.616 402.977 961.754 403.129 961.905C402.908 961.988 402.674 962.084 402.44 962.236ZM562.976 890.711C564.132 889.43 565.537 888.026 566.927 886.759C566.982 887.751 567.051 888.769 567.12 889.775C565.785 890.38 564.284 891.317 562.783 892.363C562.728 892.267 562.673 892.17 562.59 892.088L562.962 890.711H562.976ZM561.145 901.945C561.172 901.353 561.269 900.734 561.393 900.101C561.957 900.61 562.59 901.202 563.306 901.945C562.632 902.661 562.053 903.322 561.613 903.873C561.379 904.176 561.145 904.52 560.911 904.837C561.035 903.832 561.103 902.827 561.145 901.932V901.945ZM538.73 922.267C539.006 922.143 539.267 922.019 539.501 921.868C541.594 920.546 543.893 920.133 545.642 920.133C544.843 920.794 543.935 921.482 542.875 921.758C541.332 922.171 538.551 924.621 536.101 924.869C537.119 924.167 538.069 923.176 538.717 922.253L538.73 922.267ZM540.809 926.811C539.24 926.618 537.67 926.549 536.087 927.898C532.755 930.707 527.041 931.506 523.351 938.651C522.567 940.152 521.933 941.432 521.396 942.534C520.901 942.768 520.446 942.988 520.047 943.181C519.483 943.291 518.863 943.387 518.271 943.442C516.233 943.649 510.244 943.415 507.876 944.461C506.651 945.012 505.219 945.632 503.925 946.347C504.999 944.764 506.43 941.295 507.504 937.536C509.583 937.233 512.378 936.517 515.807 935.03C520.722 932.91 526.16 927.871 524.962 925.516C527.895 925.558 531.461 925.75 533.402 926.398C537.078 927.595 536.018 926.852 536.018 926.852L537.78 925.971C537.78 925.971 543.095 923.451 543.274 923.864C543.37 924.071 542.227 925.337 540.851 926.797L540.809 926.811ZM552.622 919.913C551.617 920.106 550.654 920.505 549.814 921.62C548.643 923.19 546.84 924.429 545.119 926.177C546.881 923.575 548.63 920.643 550.323 917.558C550.488 917.297 550.626 917.022 550.764 916.76C551.177 915.989 551.59 915.218 551.989 914.433C552.939 913.483 554.619 912.781 556.285 912.203C554.977 914.626 553.765 917.214 552.622 919.899V919.913ZM561.627 916.154C560.525 916.03 559.506 916.636 557.964 918.233C557.097 919.128 556.147 919.445 555.169 919.596C557.909 914.323 561.227 909.064 563.651 905.635C562.797 908.953 562.136 912.492 561.627 916.14V916.154ZM567.065 895.777C566.487 897.017 565.964 898.338 565.468 899.715C565.303 899.88 565.151 900.046 564.986 900.197C563.967 898.93 563.017 897.677 562.315 896.507C562.522 895.764 562.701 895.061 562.824 894.428C564.408 893.519 565.977 892.693 567.313 892.129C567.395 893.093 567.478 894.001 567.561 894.8C567.368 895.144 567.203 895.474 567.065 895.777ZM590.87 910.069C591.145 910.151 591.462 910.193 591.806 910.206C591.944 910.729 592.068 911.253 592.206 911.721C591.545 912.024 590.925 912.34 590.374 912.671C590.14 912.809 589.934 912.932 589.727 913.084C589.438 911.087 588.846 910.537 588.199 909.807C589.232 909.78 590.182 909.862 590.87 910.069ZM578.121 902.923C578.121 902.923 577.735 902.895 577.198 902.923C577.226 901.615 577.185 900.225 577.088 898.82C577.818 898.6 578.534 898.38 579.25 898.118C581.26 897.374 582.733 896.617 584.179 895.722C585.087 897.567 585.969 899.756 587.001 901.519C586.368 902.84 585.707 904.19 585.115 905.415C583.559 904.231 581.274 903.543 578.121 902.909V902.923ZM598.043 936.2C598.112 936.93 598.181 937.839 598.263 938.83C597.134 938.472 596.102 938.197 595.565 938.1C594.904 937.976 593.858 938.238 592.908 938.541C591.407 936.82 588.337 935.085 585.266 933.02C586.588 931.616 587.841 930.528 588.584 927.651C590.278 929.44 592.536 931.203 595 932.387C596.336 933.034 597.382 933.419 598.291 933.667C598.098 934.769 598.002 935.65 598.057 936.214L598.043 936.2ZM599.558 909.119C599.64 908.981 599.737 908.843 599.833 908.706C600.466 908.568 601.017 908.485 601.416 908.485C601.788 908.485 602.215 908.485 602.655 908.458C601.637 908.637 600.59 908.857 599.558 909.119ZM613.257 904.699C613.257 904.699 613.119 904.658 613.037 904.644C613.119 904.616 613.188 904.589 613.271 904.548C613.271 904.603 613.257 904.644 613.243 904.699H613.257ZM620.458 901.243C619.397 904.314 619.907 911.404 620.265 915.025C620.279 915.218 620.306 915.397 620.32 915.576C620.086 915.411 619.824 915.232 619.563 915.039C619.563 914.929 619.59 914.832 619.59 914.736C620.182 909.201 616.245 907.109 614.524 905.594C614.579 905.181 614.675 904.672 614.785 904.107C614.909 904.08 615.019 904.038 615.143 904.011C618.117 903.267 619.673 901.684 620.788 899.825C620.705 900.335 620.595 900.83 620.444 901.243H620.458ZM671.372 882.436C671.372 882.436 671.289 882.409 671.262 882.409C671.317 882.367 671.372 882.326 671.427 882.285C671.413 882.34 671.399 882.395 671.372 882.436ZM675.062 887.379C675.351 892.955 675.984 898.366 677.017 902.482C676.741 903.419 676.466 904.327 676.232 905.057C675.888 905.608 675.516 906.172 675.117 906.709C674.676 907.301 673.878 908.21 672.983 909.243C673.313 907.108 673.616 904.837 673.809 902.62C673.809 902.593 673.836 902.565 673.85 902.551C675.846 898.187 675.778 886.25 673.01 884.846C673.492 883.648 673.891 882.147 674.263 880.481C676.108 879.325 675.144 879.531 675.144 879.531L675.75 877.411C675.75 877.411 677.705 871.146 678.16 871.312C678.311 871.367 678.435 872.22 678.531 873.432C676.728 875.58 674.621 879.366 675.034 887.393L675.062 887.379ZM682.18 865.956C683.887 867.126 685.539 868.241 686.957 869.205C685.057 869.357 683.446 869.907 682.249 870.499C682.18 869.178 682.138 867.622 682.18 865.956ZM683.791 937.839C684.121 937.054 684.438 936.393 684.727 936.008C684.823 935.87 684.947 935.719 685.057 935.553C684.658 936.283 684.217 937.068 683.791 937.839ZM691.404 921.854C690.317 923.575 688.871 927.224 687.894 929.729C687.77 928.752 687.439 927.389 688.802 924.167C690.633 919.83 688.389 917.187 687.04 914.089C686.902 913.786 686.737 913.442 686.558 913.07C686.82 912.96 687.012 912.877 687.123 912.808C687.618 913.469 688.155 914.13 689.325 914.805C689.725 915.039 690.289 915.383 690.936 915.796C690.936 915.865 690.922 915.934 690.909 916.003C690.496 919.376 693.029 919.335 691.432 921.84L691.404 921.854ZM700.67 862.528C700.67 862.624 700.67 862.679 700.67 862.679C700.767 863.409 700.891 864.331 701.235 865.419C701.042 865.364 700.849 865.309 700.656 865.254C700.12 864.207 699.679 862.954 699.321 861.591C699.789 861.935 700.257 862.252 700.656 862.528H700.67ZM696.292 861.701C696.499 862.541 696.733 863.367 696.994 864.166C696.774 864.097 696.567 864.028 696.361 863.959C696.333 863.381 696.306 862.748 696.292 862.004C696.292 861.922 696.292 861.798 696.292 861.715V861.701ZM699.404 877.094C697.93 875.277 696.54 873.68 695.136 872.399C694.97 870.802 694.888 869.646 695.7 868.269C695.92 867.897 696.058 867.553 696.168 867.195C696.912 867.319 697.765 867.512 698.674 867.732C700.023 869.742 702.97 872.262 706.384 875.153C706.425 875.194 706.467 875.222 706.508 875.263C706.632 875.855 706.77 876.502 706.921 877.204C704.291 876.722 701.648 876.667 699.404 877.08V877.094ZM714.604 915.796C711.561 915.727 708.133 916.732 705.448 918.027C705.916 914.626 706.398 910.964 706.728 908.747C706.783 908.389 706.838 907.99 706.88 907.549C707.898 907.522 708.807 907.425 709.537 907.301C710.556 907.122 712.084 906.806 713.832 906.42C714.246 907.59 714.521 908.499 715.43 910.069C716.655 912.161 719.271 914.956 722.438 917.435C719.767 916.429 717.013 915.851 714.604 915.796ZM724.351 883.125C722.947 882.519 721.653 882.037 720.978 881.844C720.152 881.61 718.789 881.803 717.536 882.078C716.173 880.164 713.488 878.099 710.583 875.8C710.569 875.704 710.556 875.593 710.542 875.497C715.911 879.118 721.143 881.913 724.365 882.161C724.365 882.477 724.365 882.808 724.337 883.138L724.351 883.125ZM772.361 867.691C772.925 866.713 773.242 865.873 773.393 865.102C773.779 865.763 774.316 866.548 775.403 867.746C775.293 867.842 775.169 867.938 775.059 868.007C773.751 868.82 773.517 868.778 772.856 871.243C772.264 873.459 771.865 876.364 771.053 877.975C770.708 876.86 770.254 875.704 769.731 874.533C770.571 870.678 769.979 871.904 772.361 867.691ZM771.658 910.014C770.213 913.332 767.776 916.168 769.827 920.78C770.364 921.978 770.667 922.942 770.832 923.727C769.029 920.546 764.705 913.937 762.737 910.757C762.145 909.807 761.236 908.499 760.121 907.026C761.057 905.566 762.062 904.024 762.943 902.868C766.908 904.396 767.046 905.222 770.034 906.269C770.901 906.572 771.989 906.833 773.228 907.012C772.567 908.127 772.016 909.187 771.658 910.014ZM777.634 874.602C777.826 877.039 776.326 878.43 776.202 879.38C776.119 880.109 776.133 881.142 776.395 882.271C775.803 882.119 775.197 881.996 774.619 881.899C773.545 881.734 772.636 881.555 771.851 881.376C772.085 879.834 772.498 878.567 772.498 878.567H772.471C773.352 876.64 774.481 874.106 775.045 872.124C775.513 870.444 776.105 869.535 776.642 868.971C777.014 869.315 777.413 869.632 777.826 869.949C777.716 871.367 777.537 873.294 777.634 874.616V874.602ZM793.963 897.195C793.963 897.195 793.99 897.251 794.004 897.278C792.118 894.373 790.08 891.413 788.717 889.802C786.252 886.883 782.742 884.543 779.107 883.138C778.9 882.243 778.68 881.445 778.446 880.839C777.441 878.182 779.795 878.719 780.057 875.483C780.14 874.492 780.208 873.06 780.277 871.546C781.723 872.358 783.224 873.033 784.683 873.597C785.11 873.872 785.784 874.285 786.886 874.864C789.034 876.02 792.145 878.925 794.61 881.431C791.581 882.34 791.732 891.193 793.949 897.195H793.963ZM797.763 880.233C797.35 880.233 797.005 880.288 796.689 880.343C795.119 878.76 792.875 876.943 790.824 875.332C794.224 876.089 798.355 877.163 800.461 880.192C799.36 880.192 798.41 880.22 797.763 880.233ZM801.783 880.178C801.673 878.306 801.081 874.85 800.847 872.138C801.686 873.611 802.705 875.015 803.958 876.626C804.853 877.769 805.817 878.994 806.794 880.206C805.239 880.192 803.421 880.178 801.769 880.206L801.783 880.178ZM831.494 842.853C831.384 843.156 831.302 843.459 831.233 843.748C830.668 843.569 830.049 843.376 829.388 843.142C830.09 843.087 830.792 842.977 831.481 842.839L831.494 842.853ZM817.506 888.948C817.121 888.549 816.776 888.15 816.501 887.751C817.355 887.916 818.181 888.04 818.897 888.122C818.497 888.508 818.029 888.783 817.506 888.962V888.948ZM847.575 858.342C845.607 859.912 843.404 864.4 841.944 867.773C841.104 867.759 839.521 867.773 837.47 868.035C835.033 868.351 831.907 870.692 829.305 872.73C829.195 871.449 829.223 870.155 829.512 868.737C830.393 864.317 830.324 863.436 827.846 859.471C825.781 856.18 821.251 851.637 818.607 848.952C820.287 849.42 821.058 849.324 820.411 847.823C819.434 845.579 818.621 844.092 818.552 842.302C818.842 842.054 819.103 841.779 819.392 841.517C823.041 842.991 827.832 844.491 831.109 845.166C831.109 845.249 831.109 845.331 831.109 845.4C831.701 850.536 835.776 855.726 838.915 855.767C841.421 855.795 845.607 856.676 849.971 856.745C849.214 857.158 848.401 857.667 847.562 858.342H847.575ZM860.93 808.02C861.165 809.286 861.509 810.539 861.977 811.792C861.963 811.834 861.936 811.875 861.922 811.916C861.454 810.842 860.972 809.782 860.476 808.722C860.628 808.502 860.779 808.268 860.944 808.02H860.93ZM855.946 878.664C854.983 880.399 853.909 885.217 852.697 889.238C852.023 891.454 851.788 893.561 851.885 895.488C850.825 894.098 850.095 893.161 850.095 893.161C849.751 893.051 849.42 892.955 849.131 892.872C848.401 883.896 849.93 871.119 850.797 869.095C851.32 867.883 851.857 866.603 852.38 865.309C854.17 867.457 856.828 872.468 858.067 876.97C857.241 877.342 856.387 877.879 855.946 878.664ZM862.762 865.667C861.509 868.82 859.76 867.388 859.705 873.666C859.705 874.726 859.705 875.621 859.705 876.406C859.554 876.447 859.375 876.488 859.168 876.557C857.915 871.504 855.354 865.474 853.138 863.257C853.771 861.454 854.281 859.65 854.515 857.888C854.583 857.42 854.638 856.924 854.68 856.428C855.12 856.346 855.561 856.249 856.015 856.125C857.874 858.494 860.036 861.247 861.275 862.83C861.77 863.464 862.39 864.235 863.064 865.061C862.954 865.254 862.844 865.446 862.762 865.667ZM879.834 850.783C879.476 850.219 879.311 849.365 879.228 848.429C879.586 848.883 879.93 849.324 880.288 849.765C881.817 851.678 887.2 864.937 889.059 874.767C888.756 874.933 888.439 875.125 888.109 875.359C888.109 875.359 887.585 876.571 886.869 878.375C886.415 876.282 885.534 874.106 884.171 871.917C881.693 867.952 879.132 863.106 877.59 861.536C876.901 860.834 875.814 860.49 874.822 860.338C874.822 860.215 874.822 860.091 874.822 859.967C875.566 859.196 876.158 858.59 876.337 858.218C876.805 857.227 881.018 852.683 879.862 850.797L879.834 850.783ZM921.317 810.594C921.317 810.594 921.317 810.622 921.317 810.636C920.945 810.787 920.629 811.021 920.34 811.352C919.417 811.503 918.467 811.655 917.503 811.806C918.811 811.517 920.078 811.118 921.303 810.594H921.317ZM906.723 848.333C903.061 846.846 897.622 844.271 894.249 844.725C891.977 845.042 890.27 845.483 889.375 845.758C886.814 842.578 883.138 838.406 880.564 837.304C880.041 837.084 879.531 836.891 879.036 836.726C879.6 835.391 880.219 833.918 880.784 832.554C881.5 832.554 882.202 832.499 882.863 832.403C883.304 832.692 883.841 833.023 884.529 833.422C885.809 834.152 887.104 834.854 888.329 835.487C887.668 837.814 887.104 839.948 887.792 840.058C888.37 840.154 889.788 838.64 891.33 837.002C893.437 838.034 894.882 838.695 894.882 838.695C894.882 838.695 894.483 836.244 894.111 834.234C894.662 833.739 895.185 833.353 895.612 833.16C897.87 832.114 902.482 829.36 904.08 826.593C905.057 824.886 906.42 823.591 907.728 822.697L908.403 823.261C907.411 825.216 906.503 827.185 906.035 828.782C904.823 832.816 904.974 833.587 906.792 837.222C908.609 840.857 908.031 843.954 908.843 848.828C908.885 849.117 908.94 849.365 908.981 849.613C908.169 849.09 907.384 848.649 906.695 848.36L906.723 848.333ZM912.395 815.895C912.244 816.184 912.051 816.542 911.817 816.955C911.817 816.308 911.776 815.702 911.666 815.207C911.597 814.876 911.638 814.518 911.721 814.16C912.437 814.009 913.153 813.871 913.869 813.72C913.304 814.298 912.836 815.028 912.382 815.895H912.395ZM912.382 812.66C912.451 812.549 912.519 812.453 912.588 812.343C912.877 812.343 913.166 812.343 913.456 812.343C914.034 812.315 914.598 812.26 915.163 812.205C914.24 812.357 913.304 812.508 912.382 812.673V812.66ZM918.219 856.07C917.848 856.222 917.517 856.621 917.256 857.158C916.966 856.731 916.608 856.277 916.182 855.795C916.87 855.189 917.393 854.611 917.586 854.143C918.274 852.518 918.935 852.078 918.935 852.078C918.935 852.078 920.766 851.499 922.598 850.577C921.84 852.793 919.472 855.547 918.206 856.07H918.219ZM932.235 824.142C931.753 822.724 931.092 821.21 930.335 819.805C930.363 819.613 930.39 819.392 930.418 819.213C931.822 821.223 933.24 823.275 934.135 824.514C934.245 824.665 934.424 824.831 934.603 824.982C933.832 824.707 933.034 824.417 932.221 824.142H932.235ZM944.916 829.608C944.861 829.691 944.792 829.787 944.737 829.884C944.406 829.553 944.062 829.25 943.718 828.961C944.158 829.167 944.558 829.374 944.929 829.581C944.929 829.581 944.929 829.594 944.929 829.608H944.916ZM953.989 835.57C953.879 836.781 953.989 838.764 954.154 840.636C952.763 839.287 951.359 837.442 949.996 835.941C948.95 834.812 947.655 833.078 946.21 831.439C946.444 831.205 946.623 831.012 946.761 830.861C949.308 832.816 951.772 835.281 951.097 833.449C950.781 832.596 950.753 831.425 950.877 830.104C951.029 830.558 951.166 830.971 951.29 831.315C952.295 834.055 954.209 833.036 953.961 835.57H953.989ZM970.579 821.389C970.166 821.554 969.739 821.705 969.368 821.884C964.879 824.06 960.804 829.76 961.148 831.811L960.405 831.921C960.308 831.852 960.198 831.783 960.088 831.687C958.918 830.723 957.816 828.149 956.715 826.194C962.291 826.207 966.848 823.302 970.813 819.64C970.855 819.599 970.896 819.571 970.937 819.53C970.8 820.136 970.689 820.755 970.579 821.375V821.389ZM999.162 828.644C996.89 827.474 992.718 824.61 988.629 822.49C989.51 821.76 990.364 821.031 991.218 820.273C993.338 820.48 995.045 820.342 996.078 819.736C998.804 818.139 998.666 816.652 999.644 816.115C999.451 816.652 999.258 817.203 999.12 817.768C998.336 821.347 997.936 825.133 999.162 828.658V828.644ZM1028.27 777.221C1028.2 778.129 1028.16 779.038 1028.16 779.947C1027.54 779.547 1026.77 779.079 1025.89 778.542C1026.02 778.102 1026.13 777.647 1026.23 777.179C1026.73 776.353 1027.08 775.472 1027.36 774.577C1027.94 775.348 1028.58 775.982 1029.29 776.188C1028.94 776.532 1028.61 776.876 1028.27 777.207V777.221ZM1211.58 723.787C1211.41 721.887 1211.16 719.725 1210.89 717.522C1212.62 717.632 1215.16 718.403 1217.48 719.133C1215.61 720.551 1213.42 722.203 1211.58 723.773V723.787ZM1209.19 681.381C1211.66 680.238 1214.08 678.779 1215.76 677.375C1216.53 677.457 1217.23 677.54 1217.89 677.609C1220.08 683.35 1222.27 689.422 1224.2 695.342C1221.42 692.285 1214.71 685.346 1209.19 681.381ZM1252.52 713.736C1252.55 714.356 1252.63 714.961 1252.76 715.553C1252.3 715.595 1251.86 715.65 1251.43 715.719C1245.58 716.71 1239.04 721.859 1238.74 724.31L1237.86 724.186C1237.76 724.076 1237.68 723.966 1237.58 723.814C1236.52 722.245 1236.14 718.679 1235.48 716.049C1234.82 713.406 1234.55 713.447 1233.18 712.552C1232.49 712.112 1231.68 711.217 1231.04 710.446C1229.29 700.574 1225.38 688.843 1221.25 677.912C1223.32 678.077 1224.46 678.104 1225.12 678.049C1224.79 681.395 1228.77 685.897 1232.24 688.568C1236.11 691.528 1238.67 694.475 1242.42 694.02C1243.79 693.855 1245.07 693.607 1246.31 693.346C1248.97 695.728 1251.71 697.779 1253.62 699.128C1253.62 699.238 1253.62 699.293 1253.62 699.293C1253.73 700.285 1253.87 701.606 1254.46 703.19C1253.43 706.59 1252.04 710.046 1252.52 713.736ZM1253.94 696.43C1252.59 695.438 1250.98 694.199 1249.38 692.767C1250.43 692.602 1251.46 692.492 1252.51 692.492C1253.82 692.492 1254.79 692.244 1255.55 691.9C1255.59 692.024 1255.63 692.148 1255.69 692.272C1254.74 693.731 1254.23 695.204 1253.95 696.416L1253.94 696.43ZM1266.56 678.614C1268.15 678.283 1269.72 677.857 1271.27 677.306C1271.71 677.154 1272.18 676.989 1272.64 676.824C1272.79 676.824 1272.93 676.824 1273.08 676.81C1276.04 676.48 1279.23 676.494 1281.97 675.103C1282.59 675.557 1283.21 676.012 1283.84 676.466C1280.76 676.59 1276.49 677.843 1272.04 678.683C1270.06 679.054 1268.05 679.22 1266.3 679.275C1266.39 679.054 1266.48 678.848 1266.56 678.641V678.614ZM1288.54 690.372C1288.4 691.115 1288.28 691.859 1288.17 692.63C1286.25 691.349 1284.26 690.179 1282.26 689.27C1282.26 688.596 1282.22 687.935 1282.12 687.26C1281.67 685.374 1280.14 684.025 1279.99 682.001C1279.03 682.428 1278.03 682.909 1277.98 684.231L1278.09 682.854C1275.5 683.557 1272.77 683.791 1270.24 684.699C1268.99 683.859 1267.49 682.882 1266.34 681.849C1268.19 681.601 1270.32 681.202 1272.61 680.775C1276.44 680.059 1280.98 679.206 1283.75 679.302C1283.78 681.395 1285.98 685.842 1289.08 689.174C1288.9 689.573 1288.72 689.972 1288.55 690.386L1288.54 690.372ZM1420.07 564.504C1418.98 565.344 1417.53 566.459 1416.09 567.602C1415.77 567.093 1415.48 566.556 1415.15 566.046C1416.8 565.606 1418.45 565.082 1420.07 564.504ZM1421.26 506.486C1421.3 506.623 1421.33 506.761 1421.37 506.899C1421.36 507.036 1421.35 507.174 1421.32 507.298C1421.11 507.188 1420.9 507.078 1420.71 506.954C1420.89 506.788 1421.07 506.623 1421.26 506.472V506.486ZM1415.29 514.65C1416.17 513.025 1417.12 511.318 1418.23 509.776C1418.5 509.9 1418.76 510.024 1419.03 510.162C1419.62 510.451 1420.29 510.685 1420.95 510.919C1420.92 511.401 1420.92 511.896 1420.95 512.378C1421 513.562 1421.06 514.774 1421.11 515.972C1418.45 518.822 1416.14 521.658 1415.78 523.228C1415.19 525.83 1413.02 537.712 1413.26 545.559C1410.61 545.243 1407.91 545.38 1405.24 545.435C1402.17 542.668 1398.63 540.355 1396.45 540.148C1398.23 538.372 1399.84 536.404 1401.22 534.187C1402.9 533.058 1404 530.483 1404.62 527.661C1405.09 527.22 1405.54 526.752 1405.97 526.256C1409.27 522.608 1413.04 519.317 1415.29 514.65ZM1407.38 591.944C1407.16 592.164 1407.01 592.495 1406.92 592.88C1406.85 592.233 1406.7 591.586 1406.45 590.966C1406.26 590.498 1406.01 590.071 1405.73 589.672C1405.79 587.731 1406.27 586.974 1406.27 586.974C1406.27 586.974 1408.11 585.404 1409.78 583.449C1410 586.382 1408.6 590.732 1407.4 591.944H1407.38ZM1355.31 668.274C1353 665.865 1351.06 663.07 1348.94 660.454H1349.04C1350.89 661.775 1353.14 663.097 1355.81 664.309C1355.78 664.309 1355.75 664.309 1355.73 664.323C1355.78 664.323 1355.82 664.323 1355.88 664.336C1356.37 664.557 1356.88 664.777 1357.41 664.983C1356.48 666.002 1355.12 666.388 1355.31 668.274ZM1392.36 646.81C1387.78 648.393 1388.26 652.207 1388.26 652.207C1387.9 652.578 1387.66 653.047 1387.48 653.542C1386.44 651.642 1385.48 649.549 1384.64 647.195C1383.94 645.226 1383.07 643.492 1382.11 641.949C1382.08 641.867 1382.05 641.798 1382.04 641.729C1384.89 642.211 1387.79 642.473 1390.57 643.271C1391.54 644.4 1392.58 645.46 1393.75 646.397C1393.31 646.507 1392.86 646.631 1392.36 646.81ZM1425.46 623.693C1426.23 624.712 1426.94 626.185 1427.55 627.383C1426.84 627.066 1426.11 626.75 1425.38 626.46C1417.99 623.528 1412.22 620.857 1407.08 620.664C1401.95 620.485 1405.83 618.461 1399.99 620.609C1397.32 621.6 1394.46 622.619 1391.9 623.638C1391.84 623.376 1391.79 623.129 1391.72 622.867C1389.46 614.881 1383.59 607.405 1375.91 606.304C1371.88 605.258 1367.58 606.056 1363.92 608.135C1363.57 608.534 1363.27 608.947 1362.97 609.388C1361.51 608.121 1360.05 606.855 1358.62 605.533C1357.83 604.734 1356.98 604.129 1356.07 603.647C1356.37 603.468 1356.68 603.303 1356.98 603.192C1356.62 600.728 1355.69 598.415 1354.24 596.611C1355.48 596.763 1356.75 596.501 1357.9 595.923C1357.94 598.456 1359.69 600.397 1361 602.339C1365.34 600.439 1367.82 595.813 1370.03 591.49C1370.93 592.192 1371.82 592.866 1372.73 593.541C1370.69 595.551 1368.88 597.947 1367.15 600.177C1370.22 602.174 1373.79 602.642 1377.26 603.041C1384.68 603.564 1392.09 602.284 1399.23 600.053C1399.5 600.714 1399.87 600.893 1400.4 600.095C1402.04 600.246 1403.72 599.723 1405.02 598.47C1405.99 597.52 1406.61 596.24 1406.85 594.876C1407.1 597.011 1408.18 599.723 1409.9 601.595C1412.67 604.624 1415.47 610.71 1418.78 612.637C1422.12 614.565 1423.8 621.476 1425.46 623.679V623.693ZM1497.96 523.049C1496.99 522.938 1496.11 522.663 1495.14 521.988C1493.2 520.612 1491.55 520.887 1487.67 520.625C1483.8 520.364 1475.21 518.45 1468.57 518.478C1465.46 518.478 1462.04 519.414 1458.86 520.887C1458.73 520.212 1458.53 519.62 1458.26 519.193C1457.94 518.698 1457.69 518.078 1457.51 517.362C1467.72 516.729 1477.2 515.049 1479.61 511.814C1479.75 511.621 1479.89 511.428 1480.01 511.249C1480.99 512.378 1482.08 513.342 1483.44 513.962C1485.52 514.912 1486.61 517.238 1487.94 519.097C1488.45 518.147 1489.48 516.247 1489.99 515.297C1492.76 517.72 1495.43 520.295 1497.95 523.049H1497.96ZM1531.01 451.331C1529.65 453.74 1528.5 458.256 1528.02 462.139C1527.08 460.982 1526.15 459.812 1525.2 458.655C1525.17 458.628 1525.14 458.6 1525.12 458.573C1524.1 454.552 1522.42 450.863 1520.79 447.145C1521.55 447.173 1522.31 447.173 1523.06 447.145C1523.49 447.421 1524 447.586 1524.62 447.558C1527.43 447.861 1530.29 447.834 1533.14 447.489C1532.36 448.852 1531.64 450.188 1530.99 451.331H1531.01ZM1550.92 423.354C1550.92 423.354 1550.86 423.299 1550.83 423.271C1551.07 422.721 1551.32 422.17 1551.56 421.633C1551.77 422.803 1551.95 424.208 1552.11 425.75C1551.72 424.992 1551.32 424.194 1550.92 423.354ZM1566.45 462.29C1565.99 462.331 1565.57 462.373 1565.18 462.428C1561.44 455.268 1558.08 445.3 1556.47 439.187C1558.14 438.692 1559.91 438.251 1561.67 437.962C1561.67 437.962 1561.67 437.962 1561.66 437.962C1561.78 437.783 1561.78 437.48 1561.57 437.356C1561.24 437.15 1560.91 436.943 1560.58 436.737C1560.54 436.654 1560.5 436.585 1560.46 436.502C1559.05 435.374 1557.31 433.639 1555.45 431.119C1555.45 430.403 1555.43 429.687 1555.42 428.958C1558.54 430.555 1564.07 435.057 1567.71 439.669C1566.94 440.495 1566.21 441.542 1566.09 442.657C1565.83 445.149 1566.94 451.221 1567.51 456.48C1567.82 459.371 1568.57 461.918 1569.63 464.094C1567.73 462.992 1566.42 462.29 1566.42 462.29H1566.45ZM1583.79 403.996C1583.89 405.304 1584.24 406.571 1584.8 407.7C1584.74 407.906 1584.69 408.113 1584.65 408.333C1583.7 408.485 1582.76 408.801 1581.8 408.994C1580.83 407.769 1579.76 406.764 1578.7 405.758C1576.58 403.748 1573.98 403.335 1571.6 402.137L1571.54 403.528C1571.62 402.206 1570.94 401.628 1570.26 401.119C1569.96 403.115 1568.69 404.313 1568.17 406.158C1567.31 410.467 1567.8 414.9 1568.31 419.113C1569.23 425.213 1570.69 431.284 1573.04 436.392C1572.01 436.833 1570.91 437.342 1569.71 437.948C1569.71 437.948 1569.32 438.21 1568.82 438.65C1564.91 433.418 1558.97 427.691 1555.34 426.218C1555.18 423.836 1554.88 421.482 1554.3 419.334C1554.18 418.879 1554.04 418.411 1553.9 417.943C1556.11 414.859 1558.08 411.582 1560.33 408.567C1564.71 402.11 1567.51 394.372 1568.76 386.401C1568.94 385.34 1568.9 384.266 1568.79 383.206C1569.06 381.967 1569.16 380.728 1569.06 379.53C1570.19 379.035 1571.36 378.635 1572.57 378.594C1571.98 379.888 1571.36 381.196 1570.72 382.463C1571.14 384.253 1571.67 386.029 1572.49 387.667C1574.27 391.853 1578.04 394.221 1581.45 396.479C1582.58 397.14 1583.7 397.938 1584.87 398.53C1584.02 400.141 1583.71 402.179 1583.84 404.01L1583.79 403.996Z" fill="#BED5E9"/>
</svg>
