<svg xmlns="http://www.w3.org/2000/svg" width="174" height="174" viewBox="0 0 174 174" fill="none">
  <g filter="url(#filter0_f_448_924)">
    <path d="M87 141.05C116.823 141.05 141 116.874 141 87.0504C141 57.227 116.823 33.0504 87 33.0504C57.1766 33.0504 33 57.227 33 87.0504C33 116.874 57.1766 141.05 87 141.05Z" fill="#07998E" fill-opacity="0.5"/>
  </g>
  <path d="M86.82 138.69C115.992 138.69 139.64 115.042 139.64 85.8704C139.64 56.6987 115.992 33.0504 86.82 33.0504C57.6483 33.0504 34 56.6987 34 85.8704C34 115.042 57.6483 138.69 86.82 138.69Z" fill="#07998E"/>
  <path d="M86.8198 148.55L80.9742 138.425L92.6655 138.425L86.8198 148.55Z" fill="#07998E"/>
  <path d="M89.1319 99.7757V111.242H84.8319V99.7757H81.9292V96.1158H84.8319V90.8512H89.1319V96.1158H92.0887V99.7757H89.1319Z" fill="white"/>
  <path d="M84.7778 88.5885C84.1107 88.5705 83.5879 87.8854 83.5879 87.0921C83.5879 84.8204 83.5879 80.7548 83.5879 78.456C83.5879 77.6537 84.1107 77.0227 84.7778 77.0047C85.4449 76.9866 86.0038 77.6447 86.0038 78.456V87.1462C86.0038 87.9575 85.4539 88.6065 84.7688 88.5975L84.7778 88.5885Z" fill="white"/>
  <path d="M75.3664 88.5254C76.5563 88.5254 77.5389 89.508 77.5389 90.698C77.5389 91.8879 76.5563 92.8705 75.3664 92.8705C74.1764 92.8705 73.1938 91.8879 73.1938 90.698C73.1938 89.508 74.1764 88.5254 75.3664 88.5254Z" fill="white"/>
  <path d="M98.6423 88.5254C99.8322 88.5254 100.815 89.508 100.815 90.698C100.815 91.8879 99.8322 92.8705 98.6423 92.8705C97.4523 92.8705 96.4697 91.8879 96.4697 90.698C96.4697 89.508 97.4523 88.5254 98.6423 88.5254Z" fill="white"/>
  <path d="M89.1323 88.5885C88.4652 88.5705 87.9424 87.8854 87.9424 87.0921C87.9424 84.8204 87.9424 80.7548 87.9424 78.456C87.9424 77.6537 88.4652 77.0227 89.1323 77.0047C89.7994 76.9866 90.3583 77.6447 90.3583 78.456V87.1462C90.3583 87.9575 89.8084 88.6065 89.1233 88.5975L89.1323 88.5885Z" fill="white"/>
  <path d="M81.5688 76.7162C80.9107 70.9829 75.3667 70.8387 75.3667 70.8387C75.3667 70.8387 77.5663 73.1103 79.3963 76.4638C79.7118 77.0498 80.9017 80.0426 81.1812 81.2866C81.6589 83.4141 82.1457 85.208 81.8573 80.5294C81.7851 79.3936 81.7401 78.2307 81.5688 76.7252V76.7162Z" fill="white"/>
  <path d="M74.0503 72.5786C67.9834 63.8254 62.3944 64.3663 59.7621 63.6992C56.1111 62.7797 55.0835 58.8764 54.6868 61.2562C54.3262 63.4378 54.7589 76.2927 59.9334 79.6822C63.9629 82.3235 67.9203 80.4124 73.0226 81.6203C76.313 82.3956 79.7205 84.7394 79.7385 84.6673C79.7926 84.4239 79.2788 80.1149 74.0503 72.5696V72.5786Z" fill="white"/>
  <path d="M92.4403 76.7162C93.0984 70.9829 98.6424 70.8387 98.6424 70.8387C98.6424 70.8387 96.4428 73.1103 94.6129 76.4638C94.2974 77.0498 93.1074 80.0426 92.828 81.2866C92.3502 83.4141 91.8634 85.208 92.1519 80.5294C92.224 79.3936 92.2691 78.2307 92.4403 76.7252V76.7162Z" fill="white"/>
  <path d="M99.9496 72.5786C106.016 63.8254 111.606 64.3663 114.238 63.6992C117.889 62.7797 118.916 58.8764 119.313 61.2562C119.674 63.4378 119.241 76.2927 114.067 79.6822C110.037 82.3235 106.08 80.4124 100.977 81.6203C97.6869 82.3956 94.2793 84.7394 94.2613 84.6673C94.2072 84.4239 94.7211 80.1149 99.9496 72.5696V72.5786Z" fill="white"/>
  <defs>
    <filter id="filter0_f_448_924" x="0.700001" y="0.750416" width="172.6" height="172.6" filterUnits="userSpaceOnUse" color-interpolation-filters="sRGB">
      <feFlood flood-opacity="0" result="BackgroundImageFix"/>
      <feBlend mode="normal" in="SourceGraphic" in2="BackgroundImageFix" result="shape"/>
      <feGaussianBlur stdDeviation="16.15" result="effect1_foregroundBlur_448_924"/>
    </filter>
  </defs>
</svg>